<svg id="Layer_1" data-name="Layer 1" xmlns="http://www.w3.org/2000/svg" viewBox="0 0 320.92993 216.52997"><defs><style>.cls-1{fill:#231f20;}</style></defs><path class="cls-1" d="M320.92993,104.975v10a47.1174,47.1174,0,0,1-25.09985,41.62,47.02029,47.02029,0,0,1-45.03,33.44H221.02l-2.66016,20.63-.53979,4.16-3.34009,2.54-47.97,36.33-6.04,4.56994-6.04-4.56994-47.98-36.33-3.34009-2.54-.53979-4.16-2.66016-20.63h-29.78a47.02084,47.02084,0,0,1-45.02-33.44A47.03649,47.03649,0,0,1,0,114.975v-10H71.8999L76.71,84.255l1.37988-5.94L84,76.825l10.62988-2.68.11011-1.27.7-7.55,7.46-1.36,22.9502-4.2,6.48-12.6,2.79-5.43h50.68994l2.79,5.43,6.48,12.6,22.95,4.2,7.45,1.36.71,7.54.12012,1.28,10.61987,2.68,5.90991,1.49,1.38013,5.94,4.81006,20.72Z" transform="translate(0 -41.73502)"/></svg>