<?xml version="1.0" encoding="utf-8"?>
<!-- Generator: Adobe Illustrator 25.3.1, SVG Export Plug-In . SVG Version: 6.00 Build 0)  -->
<svg version="1.1" id="Layer_1" xmlns="http://www.w3.org/2000/svg" xmlns:xlink="http://www.w3.org/1999/xlink" x="0px" y="0px"
	 viewBox="0 0 300 300" style="enable-background:new 0 0 300 300;" xml:space="preserve">
<style type="text/css">
	.st0{fill:#FEE624;}
</style>
<g>
	<path d="M103.4692383,205.6455078l-3.1132813-24.109375H69.9194336c-9.9785156,0-19.3759766-3.8896484-26.4609375-10.9541016
		c-4.875-4.8935547-8.2543945-10.8964844-9.8701172-17.4882813c-3.9833984-1.8398438-7.5800781-4.3530273-10.7172852-7.4897461
		c-7.0664063-7.0561523-10.9589844-16.4555664-10.9589844-26.4658203v-4.453125h63.1176758l5.7016602-24.5473633
		l15.1474609-3.8217773l0.7070313-7.6274414l25.9155273-4.7373047l8.0151367-15.5898438h39.7158203l8.015625,15.5898438
		l25.9121094,4.7368164L204.875,86.3154297l15.1435547,3.8227539l5.7001953,24.546875h63.1181641v4.453125
		c0,10.0097656-3.8925781,19.409668-10.9609375,26.4677734c-3.1396484,3.1396484-6.7363281,5.6518555-10.7148438,7.4897461
		c-1.6171875,6.6015625-4.9970703,12.6035156-9.8632813,17.4785156
		c-7.0800781,7.0712891-16.4785156,10.9619141-26.4677734,10.9619141h-30.4365234l-3.1132813,24.109375l-46.9008789,35.5205078
		L103.4692383,205.6455078z"/>
	<path d="M167.5148926,62.8146477l7.7752228,15.1230049l24.7507324,4.5243835l0.6947174,7.4011688l15.5593262,3.9277191
		l5.8869476,25.3473892h62.2019501c0,9.1112289-3.6873779,17.3584518-9.6545715,23.3168411
		c-3.2329407,3.2330017-7.1072693,5.7801666-11.4445496,7.4456635c-1.1934814,6.7777252-4.4710083,12.8518372-9.1378784,17.5276031
		c-5.9671783,5.9583893-14.2055664,9.6545105-23.3169556,9.6545105h-34.3515472l-3.3755035,26.1400452l-42.7236633,32.3567352
		l-42.732666-32.3567352l-3.3754501-26.1400452H69.9192276c-9.1111641,0-17.3405533-3.6961212-23.3166656-9.6545105
		c-4.6579971-4.675766-7.9445-10.7498779-9.1379433-17.5276031c-4.3285561-1.6654968-8.2116108-4.2126617-11.4447231-7.4456635
		c-5.967165-5.9583893-9.6544437-14.2056122-9.6544437-23.3168411h62.2018318l5.8871689-25.3473892l15.568222-3.9277191
		l0.6858292-7.4011688l24.750618-4.5243835l7.7753296-15.1230049H167.5148926 M172.9503479,53.9083176h-5.4354553h-34.2804413
		h-5.4354401l-2.4853363,4.8339424l-5.7700958,11.2228127l-20.4366302,3.7358017l-6.6436081,1.2144394l-0.6231689,6.7249451
		l-0.1045532,1.1283035l-9.4598923,2.3866425l-5.2676086,1.3289413l-1.2290573,5.2918396l-4.2865753,18.4559937H16.3654518
		H7.4591184v8.9063339c0,11.2009506,4.3567777,21.7198868,12.2676678,29.6191635
		c3.0021858,3.0021057,6.3836689,5.4942474,10.0925808,7.4420319c1.970335,6.5749359,5.5381241,12.5604248,10.4734726,17.5146332
		c7.9468346,7.9233398,18.4607811,12.275116,29.6263885,12.275116h26.5215607l2.3726654,18.3743286l0.4783859,3.704834
		l2.9782257,2.2550659l42.732666,32.35672l5.3769379,4.0713806l5.3765564-4.0719452l42.7236633-32.35672l2.9775696-2.2549896
		l0.4783325-3.7043457l2.3726959-18.3743286h26.521347c11.1776733,0,21.6933899-4.3535004,29.6100769-12.2584991
		c4.9465027-4.9559021,8.5179749-10.9444733,10.4901733-17.5298157c3.7060242-1.9460449,7.0886841-4.4398041,10.0969238-7.4481201
		c7.9063416-7.8946686,12.2631226-18.413681,12.2631226-29.6145096v-8.9063339h-8.9063416h-55.1270447l-4.2864075-18.4559402
		l-1.2288818-5.2910538l-5.2666626-1.3295059l-9.4598236-2.3879852l-0.1067963-1.1377869l-0.6303864-6.715889l-6.6354523-1.212944
		l-20.436676-3.7357941l-5.769989-11.2227631L172.9503479,53.9083176L172.9503479,53.9083176z"/>
</g>
<path class="st0" d="M222.1831512,119.1416016l-5.8866272-25.3530045l-15.5666962-3.9208908l-0.6906281-7.4060974
	l-24.7473297-4.5265656l-7.7779694-15.120369H133.235321l-7.7780304,15.120369l-24.7473297,4.5265656l-0.6906357,7.4060974
	l-15.5667038,3.9208908l-5.8866196,25.3530045h-62.202919c0,9.1061859,3.6870918,17.3517456,9.6587391,23.3128204
	c3.2301941,3.2301941,7.1086063,5.7803345,11.4439182,7.4485779c1.1900749,6.7792206,4.4733849,12.8465271,9.1380882,17.5218658
	c5.9716492,5.9610138,14.2065773,9.6587372,23.3128281,9.6587372h34.3529587l3.3789673,26.1392365l34.246666,25.9374084v-82.3599396
	h-4.2502899c-6.4179077,0-17.479248-4.1334229-24.0884781-6.9491882l4.9090729-11.9645691
	c5.3659744,1.7532043,15.8535538,4.2609253,31.90905,4.2609253c16.0554504,0,26.5430298-2.5077209,31.9089966-4.2609253
	l4.9090729,11.9645691c-6.6091614,2.8157654-17.6705627,6.9491882-24.0884705,6.9491882h-4.2502899v82.3599396
	l34.2466583-25.9374084l3.3789673-26.1392365h34.3529663c9.1062469,0,17.3411713-3.6977234,23.3128204-9.6587372
	c4.6647034-4.6753387,7.9480286-10.7426453,9.138092-17.5218658c4.3352966-1.6682434,8.2137146-4.2183838,11.4439087-7.4485779
	c5.9716492-5.9610748,9.6588135-14.2066345,9.6588135-23.3128204H222.1831512z M209.1985626,100.7590637l4.5052948,19.4238434
	l0.8925781,3.867775l-6.9810944,5.9291l-3.6871643-5.525322L201.55867,98.8358154L209.1985626,100.7590637z M87.0453033,120.1829071
	l4.5052948-19.4238434l7.6398926-1.9232483l-2.3695145,25.6186447l-3.6870956,5.525322l-6.981102-5.9291L87.0453033,120.1829071z
	 M26.3937607,127.6421814h50.8440247l11.1463699,9.4462128l-4.3565216,6.5242004H49.3452835
	C38.8364334,143.6125946,29.8576908,136.9608917,26.3937607,127.6421814z M69.9166565,168.5830231
	c-10.4982147,0-19.4875298-6.6623383-22.9515228-15.9810486h35.3836212l15.3116302,15.9810486H69.9166565z M191.3048248,168.5830231
	l-2.6564331,2.7733002l-0.7437439,5.7272797l-2.7733612,21.5170746l-17.7768097,13.4627686v-57.1026001
	c9.6588135-1.4025879,22.0164642-6.7472992,25.9267883-8.5112c0.6906281-0.3081207,1.1156769-0.5100098,1.2219086-0.5631256
	l3.6446228-1.7213593l-11.3163605-27.5950241l-3.1665039,1.5938568l-0.9350739,0.4675293
	c-0.0743103,0.0425491-10.4769287,5.0153732-32.3552551,5.0153732c-21.8783722,0-32.2809219-4.9728241-32.3553085-5.0153732
	l-0.9350739-0.4675293l-3.1664429-1.5938568l-11.3164139,27.5950241l3.6446152,1.7213593
	c0.1062927,0.0531158,0.5312881,0.2550049,1.2219849,0.5631256c3.9102554,1.7639008,16.2679672,7.1086121,25.9267044,8.5112
	v57.1026001l-17.7768021-13.4627686l-2.7732925-21.5170746l-0.7438126-5.7272797l-2.6564331-2.7733002l-15.3222656-15.9810486
	l-3.4639893-3.6127625l3.5914993-5.3766174l0.7969284-1.1900787l4.7284546-7.0766907l5.3128586-7.9587173l2.7732925-29.8901443
	l0.7225418-7.8311462l3.6552505-0.669426l18.8712845-3.4533615l7.3105011-14.2277832h23.9078522l7.3105011,14.2277832
	l18.8712158,3.4533615l3.6552582,0.669426l0.7225342,7.8311462l2.7733612,29.8901443l5.312851,7.9587173l4.7284698,7.0766907
	l0.7969208,1.1900787l3.5914307,5.3766174l-3.4639282,3.6127625L191.3048248,168.5830231z M230.8325043,168.5830231h-27.7437286
	l15.3116302-15.9810486h35.3836823C250.3200989,161.9206848,241.330719,168.5830231,230.8325043,168.5830231z
	 M251.4038696,143.6125946h-34.6822815l-4.3565826-6.5242004l11.1463623-9.4462128h50.844101
	C270.8914795,136.9608917,261.9127197,143.6125946,251.4038696,143.6125946z"/>
</svg>
