<svg id="Layer_1" data-name="Layer 1" xmlns="http://www.w3.org/2000/svg" viewBox="0 0 300 300"><defs><style>.cls-1{fill:#fee624;}</style></defs><path class="cls-1" d="M230.37578,119.95125l-6.58893-28.37779-17.42392-4.38868-.773-8.28969-27.69985-5.06661-8.70593-16.92434H130.81588l-8.706,16.92434L94.41,78.89509l-.773,8.28969L76.21308,91.57346l-6.58894,28.37779H0a36.91911,36.91911,0,0,0,23.62035,34.43144,36.89223,36.89223,0,0,0,36.32252,30.42343h38.4515l3.7821,29.25782L140.509,243.09586v-92.186h-4.75737c-7.18361,0-19.56465-4.62656-26.9624-7.77828l5.49476-13.392c6.00617,1.96237,17.745,4.76928,35.716,4.76928,17.971,0,29.70978-2.80691,35.71595-4.76928l5.49476,13.392c-7.39768,3.15172-19.77879,7.77828-26.9624,7.77828h-4.75737v92.186l38.33252-29.03192,3.7821-29.25782h38.4515a36.89223,36.89223,0,0,0,36.32252-30.42343A36.91927,36.91927,0,0,0,300,119.95125ZM215.842,99.37555l5.04281,21.74124.99908,4.32923-7.814,6.63648-4.12706-6.18453-2.65221-28.67513Zm-136.727,21.74124,5.04281-21.74124,8.55138-2.15271L90.05706,125.898l-4.127,6.18453-7.814-6.63648ZM11.22741,129.466H68.13746l12.47621,10.57321-4.87628,7.30259H36.9172A27.43618,27.43618,0,0,1,11.22741,129.466Zm48.71546,45.82537a27.45878,27.45878,0,0,1-25.68979-17.8877H73.8582l17.13841,17.8877Zm135.87059,0-2.97336,3.10417-.83248,6.41058-3.10424,24.08421-19.89769,15.069V160.044c10.81116-1.56994,24.64316-7.5523,29.02-9.52665.773-.34489,1.24879-.57087,1.3677-.63032l4.07944-1.92673L190.80637,117.073l-3.54429,1.784-1.04663.52331c-.08319.04762-11.72691,5.61374-36.21545,5.61374-24.48862,0-36.13226-5.56612-36.21552-5.61374l-1.04663-.52331-3.54422-1.784L96.52709,147.96028l4.07944,1.92673c.119.05945.59467.28543,1.36777.63032,4.37678,1.97435,18.20885,7.95671,29.01994,9.52665v63.91531l-19.89769-15.069-3.10417-24.08421-.83256-6.41058-2.97336-3.10417-17.15031-17.8877-3.87727-4.0438,4.02-6.01807.892-1.33206,5.2926-7.921,5.94671-8.90824,3.10417-33.45624.80875-8.76546,4.09134-.74929,21.12276-3.86536,8.18269-15.92526h26.76022l8.18269,15.92526,21.12268,3.86536,4.09135.74929.80874,8.76546,3.10425,33.45624,5.94671,8.90824,5.2926,7.921.892,1.33206,4.01992,6.01807-3.8772,4.0438Zm44.2436,0H209.00332l17.1384-17.8877h39.6052A27.45887,27.45887,0,0,1,240.05706,175.29137Zm23.02567-27.94957H224.26261l-4.87635-7.30259,12.4762-10.57321h56.91013A27.43636,27.43636,0,0,1,263.08273,147.3418Z"/></svg>